:FULLY-SPECIFIED
:FORCE-ALL-JOINTS-BE-3DOF
:DEGREES
985
root 1.11542 15.153 32.4948 5.37809 -4.67268 364.124
lfemur 8.69963 1.76851 5.16666
ltibia 3.49861e-14 0 0
lfoot -30.105 -11.7143 0
ltoes -33.8762 0 0
rfemur -32.9601 -15.4958 -6.26304
rtibia 50.8354 0 0
rfoot -22.6051 4.99797 0
rtoes -41.8972 0 0
lowerback -1.55952 -0.419402 0.711649
upperback -0.71732 -0.562807 -5.90918
thorax 0.0696762 -0.297417 -6.54228
lowerneck -6.66561 1.13655 5.87464
upperneck 1.06765 0.934706 3.32563
head 1.46878 0.569495 0.0806115
lclavicle -1.19271e-15 -1.90833e-14 0
lhumerus -58.3302 -45.1106 114.756
lradius 55.0431 0 0
lwrist 25.17 0 0
lhand 37.2967 24.4826 0
lfingers 7.12502 0 0
lthumb 60.119 38.1373 0
rclavicle -1.19271e-15 -1.90833e-14 0
rhumerus 3.74617 -25.0279 -0.173623
rradius 28.014 0 0
rwrist -11.3028 0 0
rhand -31.4609 -44.6274 0
rfingers 7.12502 0 0
rthumb -4.72817 -794.555 0
986
root 1.11762 15.154 32.4897 5.34558 -4.65327 364.113
lfemur 8.703 1.73868 5.17178
ltibia 2.77268e-14 0 0
lfoot -30.1098 -11.6927 0
ltoes -33.8897 0 0
rfemur -32.9036 -15.5214 -6.259
rtibia 50.7774 0 0
rfoot -22.6355 4.96296 0
rtoes -42.015 0 0
lowerback -1.53693 -0.405011 0.695906
upperback -0.715744 -0.543757 -5.89582
thorax 0.061138 -0.287834 -6.51849
lowerneck -6.6917 1.14365 5.86656
upperneck 1.10165 0.94076 3.34023
head 1.48437 0.574199 0.0869729
lclavicle -6.37309e-16 -9.82142e-15 0
lhumerus -58.3382 -45.1621 114.812
lradius 55.0469 0 0
lwrist 25.1601 0 0
lhand 37.2848 24.4659 0
lfingers 7.12502 0 0
lthumb 60.1088 38.1313 0
rclavicle -6.37309e-16 -9.82142e-15 0
rhumerus 3.74663 -24.9499 -0.182959
rradius 28.0022 0 0
rwrist -11.2634 0 0
rhand -31.4429 -44.5557 0
rfingers 7.12502 0 0
rthumb -4.71082 -794.484 0
987
root 1.11997 15.155 32.4841 5.31078 -4.63248 364.102
lfemur 8.70662 1.70674 5.17726
ltibia 1.9955e-14 0 0
lfoot -30.1149 -11.6696 0
ltoes -33.9041 0 0
rfemur -32.843 -15.5489 -6.25467
rtibia 50.7153 0 0
rfoot -22.668 4.92548 0
rtoes -42.1411 0 0
lowerback -1.51275 -0.389604 0.679051
upperback -0.714057 -0.523362 -5.88152
thorax 0.0519971 -0.277575 -6.49302
lowerneck -6.71962 1.15125 5.85791
upperneck 1.13806 0.947241 3.35587
head 1.50107 0.579236 0.0937833
lclavicle -4.27032e-17 9.42467e-17 0
lhumerus -58.3467 -45.2171 114.872
lradius 55.051 0 0
lwrist 25.1495 0 0
lhand 37.2721 24.4479 0
lfingers 7.12502 0 0
lthumb 60.098 38.1248 0
rclavicle -4.27032e-17 9.42467e-17 0
rhumerus 3.74713 -24.8665 -0.192953
rradius 27.9896 0 0
rwrist -11.2213 0 0
rhand -31.4237 -44.4789 0
rfingers 7.12502 0 0
rthumb -4.69224 -794.407 0
988
root 1.1224 15.1561 32.4784 5.27483 -4.61101 364.09
lfemur 8.71035 1.67376 5.18292
ltibia 1.19271e-14 0 0
lfoot -30.1202 -11.6457 0
ltoes -33.919 0 0
rfemur -32.7805 -15.5772 -6.2502
rtibia 50.6512 0 0
rfoot -22.7016 4.88677 0
rtoes -42.2713 0 0
lowerback -1.48778 -0.373689 0.66164
upperback -0.712314 -0.502296 -5.86675
thorax 0.0425549 -0.266977 -6.46671
lowerneck -6.74847 1.15909 5.84897
upperneck 1.17566 0.953936 3.37202
head 1.51832 0.584438 0.100818
lclavicle 5.71505e-16 1.03368e-14 0
lhumerus -58.3555 -45.2741 114.934
lradius 55.0553 0 0
lwrist 25.1386 0 0
lhand 37.259 24.4294 0
lfingers 7.12502 0 0
lthumb 60.0868 38.1182 0
rclavicle 5.71505e-16 1.03368e-14 0
rhumerus 3.74765 -24.7802 -0.203277
rradius 27.9766 0 0
rwrist -11.1778 0 0
rhand -31.4038 -44.3996 0
rfingers 7.12502 0 0
rthumb -4.67305 -794.328 0
